<?xml version="1.0" encoding="utf-8"?>
<!-- Generator: Adobe Illustrator 18.1.0, SVG Export Plug-In . SVG Version: 6.00 Build 0)  -->
<!DOCTYPE svg PUBLIC "-//W3C//DTD SVG 1.1//EN" "http://www.w3.org/Graphics/SVG/1.1/DTD/svg11.dtd">
<svg version="1.1" id="Layer_1" xmlns="http://www.w3.org/2000/svg" xmlns:xlink="http://www.w3.org/1999/xlink" x="0px" y="0px"
	 viewBox="3579.8 -788.2 1179.8 1693.8" enable-background="new 3579.8 -788.2 1179.8 1693.8" xml:space="preserve">
<circle fill="#2A2A2A" cx="612" cy="-520.1" r="392.4"/>
<rect x="-234.3" y="792" fill="#2A2A2A" width="391" height="391"/>
<rect x="-234.3" y="1248.2" fill="#BDBDBB" width="391" height="391"/>
<rect x="-234.3" y="1704.4" fill="#F57E20" width="391" height="391"/>
<rect x="-234.3" y="2160.7" fill="#ED1C3B" width="391" height="391"/>
<g>
	
		<polyline fill="none" stroke="#ED1C3B" stroke-width="24" stroke-linecap="round" stroke-linejoin="round" stroke-miterlimit="10" points="
		3608.9,593.5 3781.8,593.5 3781.8,430.7 	"/>
	<g>
		
			<polyline fill="none" stroke="#ED1C3B" stroke-width="24" stroke-linecap="round" stroke-linejoin="round" stroke-miterlimit="10" points="
			3622.6,727.7 3936,727.7 3936,862.3 		"/>
		
			<polyline fill="none" stroke="#ED1C3B" stroke-width="24" stroke-linecap="round" stroke-linejoin="round" stroke-miterlimit="10" points="
			4248.1,862.3 4248.1,727.7 4095.7,727.7 4095.7,593.5 3936,593.5 3936,459 		"/>
		
			<polyline fill="none" stroke="#ED1C3B" stroke-width="24" stroke-linecap="round" stroke-linejoin="round" stroke-miterlimit="10" points="
			4720.7,331.7 4254.9,331.7 4254.9,459 4082.5,459 3936,459 3936,727.7 		"/>
		
			<polyline fill="none" stroke="#ED1C3B" stroke-width="24" stroke-linecap="round" stroke-linejoin="round" stroke-miterlimit="10" points="
			3622.6,197.1 3936,197.1 3936,331.7 4094.3,331.7 4094.3,197.1 4595.3,197.1 4595.3,331.7 		"/>
		
			<polyline fill="none" stroke="#ED1C3B" stroke-width="24" stroke-linecap="round" stroke-linejoin="round" stroke-miterlimit="10" points="
			3936,331.7 3936,459 3782.7,459 3782.7,331.7 3622.6,331.7 		"/>
		
			<polyline fill="none" stroke="#ED1C3B" stroke-width="24" stroke-linecap="round" stroke-linejoin="round" stroke-miterlimit="10" points="
			4573.8,862.3 4573.8,727.7 4414.1,727.7 4414.1,593.5 		"/>
		
			<polyline fill="none" stroke="#ED1C3B" stroke-width="24" stroke-linecap="round" stroke-linejoin="round" stroke-miterlimit="10" points="
			4720.7,593.5 4579.8,593.5 4579.8,459 4414.1,459 4414.1,593.5 4255.4,593.5 4254.9,459 		"/>
	</g>
</g>
<polygon fill="none" stroke="#F57E20" stroke-width="22" stroke-linecap="round" stroke-linejoin="round" stroke-miterlimit="10" points="
	4739.4,885.1 3604.8,885.1 3604.8,105.8 3610.7,105.8 3610.7,-14.6 3633.1,-14.6 3633.1,-128.2 3671.4,-128.2 3671.4,-242.3 
	3728.4,-242.3 3728.4,-356.3 3797.8,-356.3 3797.8,-470.4 3874,-470.4 3874,-584.4 3962.5,-584.4 3962.5,-698.5 4047.3,-698.5 
	4047.3,-730.4 4129.5,-730.4 4129.5,-761.9 4210.7,-761.9 4210.7,-730.4 4291.4,-730.4 4291.4,-698.5 4381.8,-698.5 4381.8,-584.4 
	4470.3,-584.4 4470.3,-470.4 4546.5,-470.4 4546.5,-356.3 4613.1,-356.3 4613.1,-242.3 4670.1,-242.3 4670.1,-128.2 4713,-128.2 
	4713,-14.6 4733,-14.6 4733,99.5 4739.4,99.5 "/>
<g>
	
		<polyline fill="none" stroke="#F57E20" stroke-width="23" stroke-linecap="round" stroke-linejoin="round" stroke-miterlimit="10" points="
		2272.2,623.2 2444.6,623.2 2444.6,460.8 	"/>
	<g>
		
			<polyline fill="none" stroke="#F57E20" stroke-width="23" stroke-linecap="round" stroke-linejoin="round" stroke-miterlimit="10" points="
			2285.9,757.8 2599.3,757.8 2599.3,892.4 		"/>
		
			<polyline fill="none" stroke="#F57E20" stroke-width="23" stroke-linecap="round" stroke-linejoin="round" stroke-miterlimit="10" points="
			2910.9,892.4 2910.9,757.8 2758.5,757.8 2758.5,623.2 2599.3,623.2 2599.3,488.6 		"/>
		
			<polyline fill="none" stroke="#F57E20" stroke-width="23" stroke-linecap="round" stroke-linejoin="round" stroke-miterlimit="10" points="
			3383.5,361.8 2917.7,361.8 2917.7,488.6 2745.3,488.6 2599.3,488.6 2599.3,757.8 		"/>
		
			<polyline fill="none" stroke="#F57E20" stroke-width="23" stroke-linecap="round" stroke-linejoin="round" stroke-miterlimit="10" points="
			2285.9,227.2 2599.3,227.2 2599.3,361.8 2757.6,361.8 2757.6,227.2 3258.5,227.2 3258.5,361.8 		"/>
		
			<polyline fill="none" stroke="#F57E20" stroke-width="23" stroke-linecap="round" stroke-linejoin="round" stroke-miterlimit="10" points="
			2599.3,361.8 2599.3,488.6 2446,488.6 2446,361.8 2285.9,361.8 		"/>
		
			<polyline fill="none" stroke="#F57E20" stroke-width="23" stroke-linecap="round" stroke-linejoin="round" stroke-miterlimit="10" points="
			3236.6,892.4 3236.6,757.8 3077.4,757.8 3077.4,623.2 		"/>
		
			<polyline fill="none" stroke="#F57E20" stroke-width="23" stroke-linecap="round" stroke-linejoin="round" stroke-miterlimit="10" points="
			3383.5,623.2 3242.6,623.2 3242.6,488.6 3077.4,488.6 3077.4,623.2 2918.7,623.2 2917.7,488.6 		"/>
	</g>
</g>
<polygon fill="none" stroke="#F57E20" stroke-width="22" stroke-linecap="round" stroke-linejoin="round" stroke-miterlimit="10" points="
	3402.7,915.2 2267.6,915.2 2267.6,136 2274,136 2274,15.5 2296.4,15.5 2296.4,-98.5 2334.2,-98.5 2334.2,-212.6 2391.3,-212.6 
	2391.3,-326.7 2461.1,-326.7 2461.1,-440.7 2536.8,-440.7 2536.8,-554.8 2625.8,-554.8 2625.8,-668.8 2710.2,-668.8 2710.2,-700.8 
	2792.7,-700.8 2792.7,-732.2 2873.5,-732.2 2873.5,-700.8 2954.7,-700.8 2954.7,-668.8 3044.6,-668.8 3044.6,-554.8 3133.5,-554.8 
	3133.5,-440.7 3209.3,-440.7 3209.3,-326.7 3275.9,-326.7 3275.9,-212.6 3332.9,-212.6 3332.9,-98.5 3376.2,-98.5 3376.2,15.5 
	3396.3,15.5 3396.3,129.6 3402.7,129.6 "/>
<g>
	<g>
		
			<polyline fill="none" stroke="#F57E20" stroke-width="5" stroke-linecap="round" stroke-linejoin="round" stroke-miterlimit="10" points="
			461.9,-399.6 508.4,-399.6 508.4,-443.9 		"/>
		<g>
			
				<polyline fill="none" stroke="#F57E20" stroke-width="5" stroke-linecap="round" stroke-linejoin="round" stroke-miterlimit="10" points="
				465.6,-363.2 550.4,-363.2 550.4,-326.7 			"/>
			
				<polyline fill="none" stroke="#F57E20" stroke-width="5" stroke-linecap="round" stroke-linejoin="round" stroke-miterlimit="10" points="
				635.3,-326.7 635.3,-363.2 593.8,-363.2 593.8,-399.6 550.4,-399.6 550.4,-436.1 			"/>
			
				<polyline fill="none" stroke="#F57E20" stroke-width="5" stroke-linecap="round" stroke-linejoin="round" stroke-miterlimit="10" points="
				763.5,-470.8 637.1,-470.8 637.1,-436.1 590.1,-436.1 550.4,-436.1 550.4,-363.2 			"/>
			
				<polyline fill="none" stroke="#F57E20" stroke-width="5" stroke-linecap="round" stroke-linejoin="round" stroke-miterlimit="10" points="
				465.6,-507.3 550.4,-507.3 550.4,-470.8 593.3,-470.8 593.3,-507.3 729.2,-507.3 729.2,-470.8 			"/>
			
				<polyline fill="none" stroke="#F57E20" stroke-width="5" stroke-linecap="round" stroke-linejoin="round" stroke-miterlimit="10" points="
				550.4,-470.8 550.4,-436.1 508.9,-436.1 508.9,-470.8 465.6,-470.8 			"/>
			
				<polyline fill="none" stroke="#F57E20" stroke-width="5" stroke-linecap="round" stroke-linejoin="round" stroke-miterlimit="10" points="
				723.3,-326.7 723.3,-363.2 680.4,-363.2 680.4,-399.6 			"/>
			
				<polyline fill="none" stroke="#F57E20" stroke-width="5" stroke-linecap="round" stroke-linejoin="round" stroke-miterlimit="10" points="
				763.5,-399.6 725.1,-399.6 725.1,-436.1 680.4,-436.1 680.4,-399.6 637.1,-399.6 637.1,-436.1 			"/>
		</g>
	</g>
	
		<polygon fill="none" stroke="#F57E20" stroke-width="5" stroke-linecap="round" stroke-linejoin="round" stroke-miterlimit="10" points="
		768.5,-320.7 460.5,-320.7 460.5,-532 462.4,-532 462.4,-564.8 468.3,-564.8 468.3,-595.8 478.8,-595.8 478.8,-626.8 493.8,-626.8 
		493.8,-657.9 513,-657.9 513,-688.4 533.5,-688.4 533.5,-719.5 557.7,-719.5 557.7,-750.5 580.5,-750.5 580.5,-759.2 602.9,-759.2 
		602.9,-767.8 624.8,-767.8 624.8,-759.2 647.1,-759.2 647.1,-750.5 671.3,-750.5 671.3,-719.5 695.5,-719.5 695.5,-688.4 
		716,-688.4 716,-657.9 734.3,-657.9 734.3,-626.8 749.8,-626.8 749.8,-595.8 761.2,-595.8 761.2,-564.8 766.7,-564.8 766.7,-533.8 
		768.5,-533.8 	"/>
</g>
<g>
	<circle fill="#2A2A2A" cx="612" cy="392.4" r="392.4"/>
	<g>
		<g>
			
				<polyline fill="none" stroke="#ED1C3B" stroke-width="5" stroke-linecap="round" stroke-linejoin="round" stroke-miterlimit="10" points="
				461.9,512.8 508.4,512.8 508.4,468.5 			"/>
			<g>
				
					<polyline fill="none" stroke="#ED1C3B" stroke-width="5" stroke-linecap="round" stroke-linejoin="round" stroke-miterlimit="10" points="
					465.6,549.3 550.4,549.3 550.4,585.8 				"/>
				
					<polyline fill="none" stroke="#ED1C3B" stroke-width="5" stroke-linecap="round" stroke-linejoin="round" stroke-miterlimit="10" points="
					635.3,585.8 635.3,549.3 593.8,549.3 593.8,512.8 550.4,512.8 550.4,476.3 				"/>
				
					<polyline fill="none" stroke="#ED1C3B" stroke-width="5" stroke-linecap="round" stroke-linejoin="round" stroke-miterlimit="10" points="
					763.5,441.6 637.1,441.6 637.1,476.3 590.1,476.3 550.4,476.3 550.4,549.3 				"/>
				
					<polyline fill="none" stroke="#ED1C3B" stroke-width="5" stroke-linecap="round" stroke-linejoin="round" stroke-miterlimit="10" points="
					465.6,405.1 550.4,405.1 550.4,441.6 593.3,441.6 593.3,405.1 729.2,405.1 729.2,441.6 				"/>
				
					<polyline fill="none" stroke="#ED1C3B" stroke-width="5" stroke-linecap="round" stroke-linejoin="round" stroke-miterlimit="10" points="
					550.4,441.6 550.4,476.3 508.9,476.3 508.9,441.6 465.6,441.6 				"/>
				
					<polyline fill="none" stroke="#ED1C3B" stroke-width="5" stroke-linecap="round" stroke-linejoin="round" stroke-miterlimit="10" points="
					723.3,585.8 723.3,549.3 680.4,549.3 680.4,512.8 				"/>
				
					<polyline fill="none" stroke="#ED1C3B" stroke-width="5" stroke-linecap="round" stroke-linejoin="round" stroke-miterlimit="10" points="
					763.5,512.8 725.1,512.8 725.1,476.3 680.4,476.3 680.4,512.8 637.1,512.8 637.1,476.3 				"/>
			</g>
		</g>
		
			<polygon fill="none" stroke="#ED1C3B" stroke-width="5" stroke-linecap="round" stroke-linejoin="round" stroke-miterlimit="10" points="
			768.5,591.7 460.5,591.7 460.5,380.5 462.4,380.5 462.4,347.6 468.3,347.6 468.3,316.6 478.8,316.6 478.8,285.6 493.8,285.6 
			493.8,254.6 513,254.6 513,224 533.5,224 533.5,193 557.7,193 557.7,162 580.5,162 580.5,153.3 602.9,153.3 602.9,144.6 
			624.8,144.6 624.8,153.3 647.1,153.3 647.1,162 671.3,162 671.3,193 695.5,193 695.5,224 716,224 716,254.6 734.3,254.6 
			734.3,285.6 749.8,285.6 749.8,316.6 761.2,316.6 761.2,347.6 766.7,347.6 766.7,378.7 768.5,378.7 		"/>
	</g>
</g>
<circle fill="#2A2A2A" cx="612" cy="1304.8" r="392.4"/>
<g>
	<g>
		
			<polyline fill="none" stroke="#BDBDBB" stroke-width="5" stroke-linecap="round" stroke-linejoin="round" stroke-miterlimit="10" points="
			461.9,1425.2 508.4,1425.2 508.4,1381 		"/>
		<g>
			
				<polyline fill="none" stroke="#BDBDBB" stroke-width="5" stroke-linecap="round" stroke-linejoin="round" stroke-miterlimit="10" points="
				465.6,1461.7 550.4,1461.7 550.4,1498.2 			"/>
			
				<polyline fill="none" stroke="#BDBDBB" stroke-width="5" stroke-linecap="round" stroke-linejoin="round" stroke-miterlimit="10" points="
				635.3,1498.2 635.3,1461.7 593.8,1461.7 593.8,1425.2 550.4,1425.2 550.4,1388.7 			"/>
			
				<polyline fill="none" stroke="#BDBDBB" stroke-width="5" stroke-linecap="round" stroke-linejoin="round" stroke-miterlimit="10" points="
				763.5,1354.1 637.1,1354.1 637.1,1388.7 590.1,1388.7 550.4,1388.7 550.4,1461.7 			"/>
			
				<polyline fill="none" stroke="#BDBDBB" stroke-width="5" stroke-linecap="round" stroke-linejoin="round" stroke-miterlimit="10" points="
				465.6,1317.6 550.4,1317.6 550.4,1354.1 593.3,1354.1 593.3,1317.6 729.2,1317.6 729.2,1354.1 			"/>
			
				<polyline fill="none" stroke="#BDBDBB" stroke-width="5" stroke-linecap="round" stroke-linejoin="round" stroke-miterlimit="10" points="
				550.4,1354.1 550.4,1388.7 508.9,1388.7 508.9,1354.1 465.6,1354.1 			"/>
			
				<polyline fill="none" stroke="#BDBDBB" stroke-width="5" stroke-linecap="round" stroke-linejoin="round" stroke-miterlimit="10" points="
				723.3,1498.2 723.3,1461.7 680.4,1461.7 680.4,1425.2 			"/>
			
				<polyline fill="none" stroke="#BDBDBB" stroke-width="5" stroke-linecap="round" stroke-linejoin="round" stroke-miterlimit="10" points="
				763.5,1425.2 725.1,1425.2 725.1,1388.7 680.4,1388.7 680.4,1425.2 637.1,1425.2 637.1,1388.7 			"/>
		</g>
	</g>
	
		<polygon fill="none" stroke="#BDBDBB" stroke-width="5" stroke-linecap="round" stroke-linejoin="round" stroke-miterlimit="10" points="
		768.5,1504.2 460.5,1504.2 460.5,1292.9 462.4,1292.9 462.4,1260.1 468.3,1260.1 468.3,1229.1 478.8,1229.1 478.8,1198 493.8,1198 
		493.8,1167 513,1167 513,1136.4 533.5,1136.4 533.5,1105.4 557.7,1105.4 557.7,1074.4 580.5,1074.4 580.5,1065.7 602.9,1065.7 
		602.9,1057.1 624.8,1057.1 624.8,1065.7 647.1,1065.7 647.1,1074.4 671.3,1074.4 671.3,1105.4 695.5,1105.4 695.5,1136.4 
		716,1136.4 716,1167 734.3,1167 734.3,1198 749.8,1198 749.8,1229.1 761.2,1229.1 761.2,1260.1 766.7,1260.1 766.7,1291.1 
		768.5,1291.1 	"/>
</g>
<circle fill="#2A2A2A" cx="612" cy="2171.6" r="392.4"/>
<g>
	
		<polyline fill="none" stroke="#ED1C3B" stroke-width="5" stroke-linecap="round" stroke-linejoin="round" stroke-miterlimit="10" points="
		461.9,2292.1 508.4,2292.1 508.4,2247.8 	"/>
	<g>
		
			<polyline fill="none" stroke="#ED1C3B" stroke-width="5" stroke-linecap="round" stroke-linejoin="round" stroke-miterlimit="10" points="
			465.6,2328.6 550.4,2328.6 550.4,2365.1 		"/>
		
			<polyline fill="none" stroke="#ED1C3B" stroke-width="5" stroke-linecap="round" stroke-linejoin="round" stroke-miterlimit="10" points="
			635.3,2365.1 635.3,2328.6 593.8,2328.6 593.8,2292.1 550.4,2292.1 550.4,2255.6 		"/>
		
			<polyline fill="none" stroke="#ED1C3B" stroke-width="5" stroke-linecap="round" stroke-linejoin="round" stroke-miterlimit="10" points="
			763.5,2220.9 637.1,2220.9 637.1,2255.6 590.1,2255.6 550.4,2255.6 550.4,2328.6 		"/>
		
			<polyline fill="none" stroke="#ED1C3B" stroke-width="5" stroke-linecap="round" stroke-linejoin="round" stroke-miterlimit="10" points="
			465.6,2184.4 550.4,2184.4 550.4,2220.9 593.3,2220.9 593.3,2184.4 729.2,2184.4 729.2,2220.9 		"/>
		
			<polyline fill="none" stroke="#ED1C3B" stroke-width="5" stroke-linecap="round" stroke-linejoin="round" stroke-miterlimit="10" points="
			550.4,2220.9 550.4,2255.6 508.9,2255.6 508.9,2220.9 465.6,2220.9 		"/>
		
			<polyline fill="none" stroke="#ED1C3B" stroke-width="5" stroke-linecap="round" stroke-linejoin="round" stroke-miterlimit="10" points="
			723.3,2365.1 723.3,2328.6 680.4,2328.6 680.4,2292.1 		"/>
		
			<polyline fill="none" stroke="#ED1C3B" stroke-width="5" stroke-linecap="round" stroke-linejoin="round" stroke-miterlimit="10" points="
			763.5,2292.1 725.1,2292.1 725.1,2255.6 680.4,2255.6 680.4,2292.1 637.1,2292.1 637.1,2255.6 		"/>
	</g>
</g>
<polygon fill="none" stroke="#F57E20" stroke-width="5" stroke-linecap="round" stroke-linejoin="round" stroke-miterlimit="10" points="
	768.5,2371 460.5,2371 460.5,2159.8 462.4,2159.8 462.4,2126.9 468.3,2126.9 468.3,2095.9 478.8,2095.9 478.8,2064.9 493.8,2064.9 
	493.8,2033.8 513,2033.8 513,2003.3 533.5,2003.3 533.5,1972.2 557.7,1972.2 557.7,1941.2 580.5,1941.2 580.5,1932.6 602.9,1932.6 
	602.9,1923.9 624.8,1923.9 624.8,1932.6 647.1,1932.6 647.1,1941.2 671.3,1941.2 671.3,1972.2 695.5,1972.2 695.5,2003.3 
	716,2003.3 716,2033.8 734.3,2033.8 734.3,2064.9 749.8,2064.9 749.8,2095.9 761.2,2095.9 761.2,2126.9 766.7,2126.9 766.7,2157.9 
	768.5,2157.9 "/>
<g>
	<circle fill="#2A2A2A" cx="1617.5" cy="364.5" r="392.4"/>
	<rect x="1479.7" y="102.6" fill="none" width="722.2" height="786.5"/>
	<text transform="matrix(1 0 0 1 1479.5636 588.5331)" fill="#BDBDBB" font-family="'MyriadPro-Regular'" font-size="684.3318">?</text>
	
		<text transform="matrix(1 0 0 1 1479.5636 588.5331)" fill="none" stroke="#BDBDBB" stroke-width="7" stroke-linecap="round" stroke-miterlimit="10" font-family="'MyriadPro-Regular'" font-size="684.3318">?</text>
</g>
<g>
	<circle fill="#2A2A2A" cx="1607.9" cy="-520.1" r="392.4"/>
	<g>
		<circle fill="#ED1C3B" cx="1505.3" cy="-607.7" r="119.5"/>
		<circle fill="#ED1C3B" cx="1715.6" cy="-607.7" r="119.5"/>
		<path fill="#ED1C3B" d="M1835.1-599.9c0,0-18.2,214-224.9,336.2c0,0-218.5-147.4-224.9-335.3"/>
	</g>
	<g>
		<polyline fill="#2A2A2A" stroke="#ED1C3B" stroke-miterlimit="10" points="1738,-409.7 1788.1,-415.6 1663.1,-543.4 1685,-369.5 
			1714.2,-396.9 		"/>
		<polyline fill="#2A2A2A" stroke="#ED1C3B" stroke-miterlimit="10" points="1737.5,-411.5 1768.1,-343.1 1743.4,-332.1 
			1713.3,-399.2 		"/>
	</g>
</g>
<g>
	<circle fill="#2A2A2A" cx="1624.8" cy="1317.6" r="392.4"/>
	
		<circle fill="#F57E20" stroke="#F57E20" stroke-width="2" stroke-linecap="round" stroke-linejoin="round" stroke-miterlimit="10" cx="1560.9" cy="1397.4" r="184.8"/>
	
		<rect x="1511.2" y="1163.8" fill="#F57E20" stroke="#F57E20" stroke-width="2" stroke-linecap="round" stroke-linejoin="round" stroke-miterlimit="10" width="99.5" height="96.7"/>
	
		<rect x="1511.2" y="1533.4" fill="#F57E20" stroke="#F57E20" stroke-width="2" stroke-linecap="round" stroke-linejoin="round" stroke-miterlimit="10" width="99.5" height="96.7"/>
	
		<rect x="1698.3" y="1350.9" fill="#F57E20" stroke="#F57E20" stroke-width="2" stroke-linecap="round" stroke-linejoin="round" stroke-miterlimit="10" width="99.5" height="96.7"/>
	
		<rect x="1328.7" y="1350.9" fill="#F57E20" stroke="#F57E20" stroke-width="2" stroke-linecap="round" stroke-linejoin="round" stroke-miterlimit="10" width="99.5" height="96.7"/>
	
		<rect x="1641.1" y="1230.1" transform="matrix(-0.7071 -0.7071 0.7071 -0.7071 1987.2189 3363.1416)" fill="#F57E20" stroke="#F57E20" stroke-width="2" stroke-linecap="round" stroke-linejoin="round" stroke-miterlimit="10" width="98.1" height="79.8"/>
	
		<rect x="1640.8" y="1485.4" transform="matrix(0.7071 -0.7071 0.7071 0.7071 -583.6524 1641.665)" fill="#F57E20" stroke="#F57E20" stroke-width="2" stroke-linecap="round" stroke-linejoin="round" stroke-miterlimit="10" width="98.1" height="79.8"/>
	
		<rect x="1381.1" y="1490.1" transform="matrix(-0.7071 -0.7071 0.7071 -0.7071 1359.4183 3623.1899)" fill="#F57E20" stroke="#F57E20" stroke-width="2" stroke-linecap="round" stroke-linejoin="round" stroke-miterlimit="10" width="98.1" height="79.8"/>
	
		<rect x="1380.7" y="1230" transform="matrix(0.7071 -0.7071 0.7071 0.7071 -479.1648 1382.9528)" fill="#F57E20" stroke="#F57E20" stroke-width="2" stroke-linecap="round" stroke-linejoin="round" stroke-miterlimit="10" width="98.1" height="79.8"/>
	
		<polygon fill="#2A2A2A" stroke="#2A2A2A" stroke-width="2" stroke-linecap="round" stroke-linejoin="round" stroke-miterlimit="10" points="
		1531.3,1444.4 1504.4,1397.4 1531.3,1350.4 1586,1350.4 1612.9,1397.4 1586,1444.4 	"/>
	
		<circle fill="#F57E20" stroke="#F57E20" stroke-linecap="round" stroke-linejoin="round" stroke-miterlimit="10" cx="1694.6" cy="1094.5" r="87.1"/>
	
		<rect x="1646.3" y="988.2" transform="matrix(-0.9591 0.283 -0.283 -0.9591 3557.4109 1508.075)" fill="#F57E20" stroke="#F57E20" stroke-linecap="round" stroke-linejoin="round" stroke-miterlimit="10" width="47" height="45.6"/>
	
		<rect x="1695.5" y="1155.1" transform="matrix(-0.9591 0.283 -0.283 -0.9591 3701.1775 1821.2615)" fill="#F57E20" stroke="#F57E20" stroke-linecap="round" stroke-linejoin="round" stroke-miterlimit="10" width="47" height="45.6"/>
	
		<rect x="1755.7" y="1047.5" transform="matrix(-0.9591 0.283 -0.283 -0.9591 3788.5464 1593.3156)" fill="#F57E20" stroke="#F57E20" stroke-linecap="round" stroke-linejoin="round" stroke-miterlimit="10" width="47" height="45.6"/>
	
		<rect x="1588.7" y="1096.7" transform="matrix(-0.9591 0.283 -0.283 -0.9591 3475.3589 1737.0834)" fill="#F57E20" stroke="#F57E20" stroke-linecap="round" stroke-linejoin="round" stroke-miterlimit="10" width="47" height="45.6"/>
	
		<rect x="1712.8" y="1000.6" transform="matrix(-0.8783 -0.4781 0.4781 -0.8783 2773.0928 2744.8606)" fill="#F57E20" stroke="#F57E20" stroke-linecap="round" stroke-linejoin="round" stroke-miterlimit="10" width="46.1" height="37.9"/>
	
		<rect x="1747" y="1115.9" transform="matrix(0.4781 -0.8783 0.8783 0.4781 -72.8991 2146.9111)" fill="#F57E20" stroke="#F57E20" stroke-linecap="round" stroke-linejoin="round" stroke-miterlimit="10" width="46.1" height="37.9"/>
	
		<rect x="1629.7" y="1152.8" transform="matrix(-0.8783 -0.4781 0.4781 -0.8783 2544.2131 2991.1211)" fill="#F57E20" stroke="#F57E20" stroke-linecap="round" stroke-linejoin="round" stroke-miterlimit="10" width="46.1" height="37.9"/>
	
		<rect x="1595.4" y="1035.2" transform="matrix(0.4781 -0.8783 0.8783 0.4781 -81.1903 1971.5944)" fill="#F57E20" stroke="#F57E20" stroke-linecap="round" stroke-linejoin="round" stroke-miterlimit="10" width="46.1" height="37.9"/>
	<polygon fill="#2A2A2A" stroke="#2A2A2A" stroke-linecap="round" stroke-linejoin="round" stroke-miterlimit="10" points="
		1687.3,1119.6 1669.1,1101.8 1675,1077.1 1699.6,1069.8 1717.9,1087.6 1711.9,1112.3 	"/>
</g>
</svg>
